<svg viewBox="0 0 24 24" xmlns="http://www.w3.org/2000/svg" fill="#2496ED">
  <path d="M13.983 11.078h2.119c.51 0 .9-.418.9-.91 0-.51-.39-.91-.9-.91h-2.119c-.51 0-.9.4-.9.91 0 .492.39.91.9.91m-2.813 0h2.119c.51 0 .9-.418.9-.91 0-.51-.39-.91-.9-.91h-2.119c-.51 0-.9.4-.9.91 0 .492.39.91.9.91m-2.79 0h2.119c.5 0 .9-.418.9-.91 0-.51-.4-.91-.9-.91H8.38c-.51 0-.9.4-.9.91 0 .492.39.91.9.91m-2.812 0h2.12c.51 0 .9-.418.9-.91 0-.51-.39-.91-.9-.91h-2.12c-.51 0-.9.4-.9.91 0 .492.39.91.9.91m-2.785 0h2.119c.51 0 .9-.418.9-.91 0-.51-.39-.91-.9-.91H2.785c-.51 0-.9.4-.9.91 0 .492.39.91.9.91m2.785-2.79h2.119c.51 0 .9-.418.9-.91 0-.51-.39-.91-.9-.91H5.57c-.51 0-.9.4-.9.91 0 .492.39.91.9.91m2.812 0h2.12c.51 0 .9-.418.9-.91 0-.51-.39-.91-.9-.91h-2.12c-.51 0-.9.4-.9.91 0 .492.39.91.9.91m-2.812-2.79h2.12c.51 0 .9-.418.9-.91 0-.51-.39-.91-.9-.91h-2.12c-.51 0-.9.4-.9.91 0 .492.39.91.9.91m8.423 8.37h2.119c.51 0 .9-.418.9-.91 0-.51-.39-.91-.9-.91h-2.119c-.51 0-.9.4-.9.91 0 .492.39.91.9.91"/>
  <path d="M22.304 14.056c-.254-.78-1.12-1.393-2.327-1.393-.16 0-.315.01-.466.03-.432-1.57-1.802-2.818-3.52-2.818-.28 0-.55.035-.815.1-.31-1.353-1.425-2.38-2.823-2.38-.415 0-.814.093-1.18.257-.123-.08-.258-.153-.404-.216A6.29 6.29 0 0 0 10.235 7.1c0 2.21 2.378 4.004 5.3 4.004 1.155 0 2.222-.28 3.093-.75.31.25.688.42 1.11.45.54.04 1.056-.162 1.488-.507.034.12.062.247.078.378.118.847-.32 1.63-1.026 1.834a3.8 3.8 0 0 1-1.037.142c-2.11 0-3.83-1.255-3.83-2.8v-.03c0-.12-.01-.237-.025-.353l-.04-.337-.328.083c-.378.093-.762.14-1.144.14-1.782 0-3.32-.976-3.957-2.37-.282.11-.532.28-.737.5-.54.58-.87 1.4-.87 2.32 0 2.76 2.92 5 6.5 5 1.55 0 2.97-.417 4.03-1.113.82.52 1.84.823 2.956.823 1.944 0 3.56-.934 3.933-2.19.06-.21.09-.434.09-.663 0-.17-.018-.334-.05-.494"/>
</svg>
